HIERARCHY
ROOT Hips
{
	OFFSET 0.00000 0.00000 0.00000
	CHANNELS 6 Xposition Yposition Zposition Zrotation Yrotation Xrotation 
	JOINT LHipJoint
	{
		OFFSET 0 0 0
		CHANNELS 3 Zrotation Yrotation Xrotation
		JOINT LeftUpLeg
		{
			OFFSET 1.30186 -1.90722 0.65024
			CHANNELS 3 Zrotation Yrotation Xrotation
			JOINT LeftLeg
			{
				OFFSET 2.56413 -7.04489 0.00000
				CHANNELS 3 Zrotation Yrotation Xrotation
				JOINT LeftFoot
				{
					OFFSET 2.79321 -7.67428 0.00000
					CHANNELS 3 Zrotation Yrotation Xrotation
					JOINT LeftToeBase
					{
						OFFSET 0.15723 -0.43198 2.08537
						CHANNELS 3 Zrotation Yrotation Xrotation
						End Site
						{
							OFFSET 0.00000 -0.00000 1.07411
						}
					}
				}
			}
		}
	}
	JOINT RHipJoint
	{
		OFFSET 0 0 0
		CHANNELS 3 Zrotation Yrotation Xrotation
		JOINT RightUpLeg
		{
			OFFSET -1.28627 -1.90723 0.65024
			CHANNELS 3 Zrotation Yrotation Xrotation
			JOINT RightLeg
			{
				OFFSET -2.56567 -7.04913 0.00000
				CHANNELS 3 Zrotation Yrotation Xrotation
				JOINT RightFoot
				{
					OFFSET -2.75597 -7.57198 0.00000
					CHANNELS 3 Zrotation Yrotation Xrotation
					JOINT RightToeBase
					{
						OFFSET -0.17500 -0.48081 2.22901
						CHANNELS 3 Zrotation Yrotation Xrotation
						End Site
						{
							OFFSET -0.00000 -0.00000 1.14762
						}
					}
				}
			}
		}
	}
	JOINT LowerBack
	{
		OFFSET 0 0 0
		CHANNELS 3 Zrotation Yrotation Xrotation
		JOINT Spine
		{
			OFFSET -0.04522 2.07467 -0.16566
			CHANNELS 3 Zrotation Yrotation Xrotation
			JOINT Spine1
			{
				OFFSET -0.01178 2.08825 -0.05393
				CHANNELS 3 Zrotation Yrotation Xrotation
				JOINT Neck
				{
					OFFSET 0 0 0
					CHANNELS 3 Zrotation Yrotation Xrotation
					JOINT Neck1
					{
						OFFSET -0.05182 1.80489 0.16014
						CHANNELS 3 Zrotation Yrotation Xrotation
						JOINT Head
						{
							OFFSET 0.14739 1.78840 -0.33342
							CHANNELS 3 Zrotation Yrotation Xrotation
							End Site
							{
								OFFSET 0.04364 1.83899 -0.13460
							}
						}
					}
				}
				JOINT LeftShoulder
				{
					OFFSET 0 0 0
					CHANNELS 3 Zrotation Yrotation Xrotation
					JOINT LeftArm
					{
						OFFSET 3.01264 1.29090 -0.06579
						CHANNELS 3 Zrotation Yrotation Xrotation
						JOINT LeftForeArm
						{
							OFFSET 5.55680 -0.00000 0.00000
							CHANNELS 3 Zrotation Yrotation Xrotation
							JOINT LeftHand
							{
								OFFSET 3.63979 -0.00000 -0.00000
								CHANNELS 3 Zrotation Yrotation Xrotation
								JOINT LeftFingerBase
								{
									OFFSET 0 0 0
									CHANNELS 3 Zrotation Yrotation Xrotation
									JOINT LeftHandIndex1
									{
										OFFSET 0.56942 -0.00000 -0.00000
										CHANNELS 3 Zrotation Yrotation Xrotation
										End Site
										{
											OFFSET 0.45908 -0.00000 -0.00000
										}
									}
								}
								JOINT LThumb
								{
									OFFSET 0 0 0
									CHANNELS 3 Zrotation Yrotation Xrotation
									End Site
									{
										OFFSET 0.46609 -0.00000 0.46609
									}
								}
							}
						}
					}
				}
				JOINT RightShoulder
				{
					OFFSET 0 0 0
					CHANNELS 3 Zrotation Yrotation Xrotation
					JOINT RightArm
					{
						OFFSET -3.15796 1.37283 -0.36748
						CHANNELS 3 Zrotation Yrotation Xrotation
						JOINT RightForeArm
						{
							OFFSET -5.34339 -0.00000 0.00000
							CHANNELS 3 Zrotation Yrotation Xrotation
							JOINT RightHand
							{
								OFFSET -3.65101 -0.00000 -0.00000
								CHANNELS 3 Zrotation Yrotation Xrotation
								JOINT RightFingerBase
								{
									OFFSET 0 0 0
									CHANNELS 3 Zrotation Yrotation Xrotation
									JOINT RightHandIndex1
									{
										OFFSET -0.69425 -0.00000 -0.00000
										CHANNELS 3 Zrotation Yrotation Xrotation
										End Site
										{
											OFFSET -0.55972 -0.00000 -0.00000
										}
									}
								}
								JOINT RThumb
								{
									OFFSET 0 0 0
									CHANNELS 3 Zrotation Yrotation Xrotation
									End Site
									{
										OFFSET -0.56827 -0.00000 0.56827
									}
								}
							}
						}
					}
				}
			}
		}
	}
}
MOTION
Frames: 7
Frame Time: .0083333
17.8965 10.2655 1.3765 349.1550 -74.0829 -374.6400 0.0000 0.0000 0.0000 7.0741 -7.8530 -63.7653 11.5809 18.2078 64.6542 2.1735 8.2856 26.4954 0.6504 5.1589 14.3622 0.0000 0.0000 0.0000 6.1428 10.0332 -64.8468 -14.3370 -19.2131 73.2312 -0.9469 -9.8576 17.6705 -0.3852 -3.9857 11.0364 -5.5405 2.3144 38.6500 0.2260 -0.8155 14.3375 3.4190 -1.3936 -2.9118 -17.9538 -21.1329 6.2481 28.2240 -32.5113 4.4536 8.1366 -16.3183 8.2523 -0.0000 0.0000 0.0000 -55.7162 -50.0350 10.9245 92.7622 -59.9712 -62.3919 -0.0000 0.0000 -32.6445 25.8658 20.4014 9.5930 -7.1250 0.0000 -0.0000 -2.7205 52.4168 -0.4969 -0.0000 0.0000 0.0000 96.0571 64.5901 67.2542 -38.0635 46.8798 -17.0119 0.0000 -0.0000 -1.9013 -17.5515 28.7031 -8.6374 7.1250 -0.0000 -0.0000 7.6415 -0.3446 7.6640
17.8787 10.2618 1.3778 349.3280 -74.1641 -374.9560 0.0000 0.0000 0.0000 7.0742 -7.7908 -63.6797 11.6316 18.2305 64.8162 2.1653 8.3120 26.4424 0.6168 5.0263 13.9836 0.0000 0.0000 0.0000 6.2099 9.9158 -64.7887 -14.3777 -19.2246 73.3547 -0.9268 -9.7205 17.4747 -0.4020 -4.0708 11.2758 -6.0653 2.6072 39.2650 0.7085 -0.6673 14.1960 4.1526 -1.3574 -3.2589 -18.4081 -21.1684 6.0065 27.8740 -32.4858 4.5622 8.0435 -16.2718 8.3234 -0.0000 -0.0000 0.0000 -54.5351 -51.1254 11.7277 94.0868 -59.9368 -63.5385 -0.0000 0.0000 -33.3748 23.9361 19.6855 8.5044 -7.1250 0.0000 -0.0000 -4.4871 51.3029 -0.6979 -0.0000 -0.0000 0.0000 95.9431 63.9489 67.9230 -37.9659 46.8175 -16.9407 0.0000 -0.0000 -2.2349 -16.8616 29.0191 -8.3643 7.1250 -0.0000 -0.0000 8.0766 -0.1428 8.1378
17.8555 10.2526 1.3803 349.7340 -74.2092 -375.3770 0.0000 0.0000 0.0000 7.0458 -7.7311 -63.7978 11.6920 18.2574 65.0091 2.2007 7.8700 26.6817 0.4886 4.4821 12.4370 0.0000 0.0000 0.0000 6.1132 9.9039 -64.8847 -14.4331 -19.2402 73.5229 -0.9081 -9.6077 17.2927 -0.4087 -4.1041 11.3697 -6.8389 2.9322 39.7447 1.1774 -0.5589 14.0158 5.0146 -1.3415 -3.5998 -18.5538 -21.2057 5.8293 27.3689 -32.4185 4.6582 7.8983 -16.2128 8.2823 -0.0000 0.0000 0.0000 -52.8576 -52.0595 12.2193 95.0255 -59.9044 -64.3508 -0.0000 0.0000 -34.0119 21.7131 18.0966 7.0513 -7.1250 0.0000 -0.0000 -6.2545 49.2565 -0.6588 -0.0000 0.0000 0.0000 96.4637 63.2787 69.1900 -37.8250 46.7272 -16.8380 0.0000 -0.0000 -2.6815 -16.7811 29.1691 -8.3613 7.1250 -0.0000 -0.0000 8.1382 -0.0055 8.2208
17.8471 10.2499 1.3801 349.8530 -74.2297 -375.4520 0.0000 0.0000 0.0000 7.0546 -7.6754 -63.9015 11.7238 18.2714 65.1105 2.2172 7.7574 26.7906 0.5168 4.6077 12.7929 0.0000 0.0000 0.0000 6.0429 10.0214 -64.9416 -14.4649 -19.2490 73.6195 -0.9029 -9.5568 17.2386 -0.3742 -3.9288 10.8765 -6.7948 2.9860 39.9810 1.1747 -0.4937 13.9168 4.9679 -1.2966 -3.7884 -18.6424 -21.2473 5.9891 27.5302 -32.5321 4.6244 7.9445 -16.2820 8.3221 -0.0000 0.0000 0.0000 -50.2440 -53.1510 12.8218 96.1780 -59.8553 -65.3477 -0.0000 0.0000 -34.8829 19.5513 17.1841 5.9895 -7.1250 0.0000 -0.0000 -8.0813 47.9817 -0.5981 -0.0000 0.0000 0.0000 97.4591 62.4983 69.9388 -37.6512 46.6151 -16.7117 0.0000 -0.0000 -2.4328 -17.5386 29.4270 -8.8261 7.1250 -0.0000 -0.0000 7.7233 0.3836 7.8463
17.8509 10.2573 1.3791 350.4640 -74.2308 -375.9060 0.0000 0.0000 0.0000 6.8661 -7.6691 -63.8983 11.7079 18.2644 65.0599 2.2014 8.0683 26.6778 0.6145 5.0171 13.9572 0.0000 0.0000 0.0000 5.7954 10.2566 -64.9899 -14.4544 -19.2461 73.5875 -0.9191 -9.3839 17.3538 -0.2749 -3.3722 9.3168 -5.9817 2.6467 39.4572 0.4095 -0.6425 14.2767 3.7823 -1.3383 -3.2320 -18.3019 -21.2821 5.9808 28.2924 -32.7120 4.4697 8.0943 -16.3838 8.4267 -0.0000 0.0000 0.0000 -45.9329 -54.5964 12.5231 97.5746 -59.7821 -66.5550 -0.0000 0.0000 -35.6823 17.7864 17.7148 5.5752 -7.1250 0.0000 -0.0000 -9.9023 48.2725 -0.8068 -0.0000 0.0000 0.0000 99.2919 62.1693 70.2265 -37.5147 46.5265 -16.6125 0.0000 -0.0000 -1.3316 -17.2891 29.8490 -8.8061 7.1250 -0.0000 -0.0000 7.9124 0.7653 8.0946
17.8494 10.2678 1.3860 350.9900 -74.2200 -376.2150 0.0000 0.0000 0.0000 6.7016 -7.7151 -63.9542 11.6853 18.2544 64.9878 2.1419 8.3951 26.2927 0.7409 5.4985 15.3360 0.0000 0.0000 0.0000 5.5887 10.3117 -65.1086 -14.4226 -19.2372 73.4911 -0.9413 -9.1628 17.5167 -0.2120 -2.9642 8.1790 -5.9136 2.5846 39.2228 0.3264 -0.6838 14.3846 3.6710 -1.3609 -3.0393 -18.3793 -21.2754 5.9229 28.4982 -32.6957 4.3118 8.1596 -16.3799 8.4403 -0.0000 -0.0000 0.0000 -42.7383 -55.6621 12.1951 98.9666 -59.6940 -67.7573 -0.0000 0.0000 -36.2398 15.9636 18.4566 5.1747 -7.1250 0.0000 -0.0000 -11.8598 48.7568 -1.1133 -0.0000 -0.0000 0.0000 99.8061 61.7806 70.5568 -37.5688 46.5617 -16.6518 0.0000 -0.0000 -1.0134 -16.7189 29.7470 -8.4768 7.1250 -0.0000 -0.0000 8.2319 0.5648 8.3995
17.8461 10.2781 1.3897 350.9780 -74.3535 -376.1730 0.0000 0.0000 0.0000 6.7604 -7.5973 -63.9156 11.6744 18.2496 64.9531 2.1039 8.5222 26.0483 0.8669 5.9367 16.6008 0.0000 0.0000 0.0000 5.6997 10.3481 -65.0549 -14.3741 -19.2236 73.3439 -0.9626 -8.8972 17.6686 -0.1390 -2.4026 6.6198 -6.0269 2.6610 39.3786 0.4856 -0.6407 14.3801 3.8830 -1.3547 -3.0935 -18.5275 -21.2110 5.9324 28.5165 -32.5495 4.1208 8.2200 -16.3200 8.3702 -0.0000 0.0000 0.0000 -39.6034 -56.4521 11.6557 100.1632 -59.6061 -68.7900 -0.0000 0.0000 -36.4411 13.6481 18.5373 4.4143 -7.1250 0.0000 -0.0000 -14.0648 48.5010 -1.2372 -0.0000 0.0000 0.0000 100.2134 61.3165 71.5468 -37.7149 46.6562 -16.7579 0.0000 -0.0000 -2.0600 -17.3189 29.0756 -8.6168 7.1250 -0.0000 -0.0000 7.8152 -0.0085 7.8878
